<?xml version="1.0" encoding="UTF-8"?>
<svg width="306" height="315" xmlns="http://www.w3.org/2000/svg"><rect width="306" height="315" fill="white"></rect><g transform="translate(20, 20)"><g transform="translate(0, 40)"><g transform="translate(25.142857142857142, 3)"><text dy="11" font-size="11" font-family="monospace" fill="blue">0ms</text></g><g transform="translate(12.571428571428573, 46)"><text dy="11" font-size="11" font-family="monospace" fill="blue">250ms</text></g><g transform="translate(12.571428571428573, 89)"><text dy="11" font-size="11" font-family="monospace" fill="blue">400ms</text></g><g transform="translate(12.571428571428573, 132)"><text dy="11" font-size="11" font-family="monospace" fill="blue">500ms</text></g><g transform="translate(12.571428571428573, 152)"><text dy="11" font-size="11" font-family="monospace" fill="blue">750ms</text></g><g transform="translate(0, 195)"><text dy="11" font-size="11" font-family="monospace" fill="blue">1,000ms</text></g></g><g transform="translate(56, 0)"><g transform="translate(0, 0)"><rect fill="lightgrey" height="20" width="30"></rect><text x="3" dy="14" font-size="14" font-family="monospace" textLength="24">abc</text><line x1="12" x2="12" y1="20" y2="275" stroke="lightgrey" stroke-width="1"></line></g><g transform="translate(70, 0)"><rect fill="lightgrey" height="20" width="30"></rect><text x="3" dy="14" font-size="14" font-family="monospace" textLength="24">def</text><line x1="12" x2="12" y1="20" y2="275" stroke="lightgrey" stroke-width="1"></line></g><g transform="translate(140, 0)"><rect fill="lightgrey" height="20" width="30"></rect><text x="3" dy="14" font-size="14" font-family="monospace" textLength="24">ghi</text><line x1="12" x2="12" y1="20" y2="275" stroke="lightgrey" stroke-width="1"></line></g></g><g transform="translate(56, 40)"><g transform="translate(0, 0)"><text x="25" dy="11" font-size="11" font-family="monospace" fill="black" textLength="37.714285714285715">hello!</text><rect x="65.71428571428572" height="17" width="12.285714285714285" rx="3" fill="lightblue"></rect><text x="68.71428571428572" dy="11" font-size="11" font-family="monospace" fill="black" textLength="6.285714285714286">0</text><line x1="12" x2="82" y1="20" y2="20" stroke="black" stroke-width="1" marker-end="url(#end-black)"></line></g><g transform="translate(0, 43)"><text x="95" dy="11" font-size="11" font-family="monospace" fill="black" textLength="37.714285714285715">hello!</text><rect x="135.71428571428572" height="17" width="12.285714285714285" rx="3" fill="lightblue"></rect><text x="138.71428571428572" dy="11" font-size="11" font-family="monospace" fill="black" textLength="6.285714285714286">1</text><line x1="82" x2="152" y1="20" y2="20" stroke="black" stroke-width="1" marker-end="url(#end-black)"></line></g><g transform="translate(0, 86)"><text x="166" dy="11" font-size="11" font-family="monospace" fill="black" textLength="37.714285714285715">hello!</text><rect x="206.71428571428572" height="17" width="12.285714285714285" rx="3" fill="lightblue"></rect><text x="209.71428571428572" dy="11" font-size="11" font-family="monospace" fill="black" textLength="6.285714285714286">2</text><path d="M 152,20 C 232,10 232,40 152,30" fill="transparent" stroke="black" stroke-width="1" marker-end="url(#end-black)"></path></g><g transform="translate(0, 129)"><rect fill="orangered" opacity="75%" y="3" height="17" width="56.285714285714285"></rect><text y="0" x="3" dy="14" font-size="11" font-family="monospace" fill="black" textLength="50.285714285714285">testing!</text></g><g transform="translate(0, 149)"><text x="95" dy="11" font-size="11" font-family="monospace" fill="black" textLength="37.714285714285715">hello!</text><rect x="135.71428571428572" height="17" width="12.285714285714285" rx="3" fill="lightblue"></rect><text x="138.71428571428572" dy="11" font-size="11" font-family="monospace" fill="black" textLength="6.285714285714286">1</text><line x1="152" x2="82" y1="20" y2="20" stroke="black" stroke-width="1" marker-end="url(#end-black)"></line></g><g transform="translate(0, 192)"><text x="25" dy="11" font-size="11" font-family="monospace" fill="black" textLength="37.714285714285715">hello!</text><rect x="65.71428571428572" height="17" width="12.285714285714285" rx="3" fill="lightblue"></rect><text x="68.71428571428572" dy="11" font-size="11" font-family="monospace" fill="black" textLength="6.285714285714286">0</text><line x1="82" x2="12" y1="20" y2="20" stroke="black" stroke-width="1" stroke-dasharray="5 5" marker-end="url(#end-black)"></line></g></g></g><defs><marker id="end-black" viewBox="0 -5 10 10" refX="10" refY="0" markerWidth="10" markerHeight="10" orient="auto"><path d="M0,-5L10,0L0,5" fill="black"></path></marker><marker id="end-red" viewBox="0 -5 10 10" refX="10" refY="0" markerWidth="10" markerHeight="10" orient="auto"><path d="M0,-5L10,0L0,5" fill="red"></path></marker></defs></svg>